
<svg xmlns="http://www.w3.org/2000/svg" width="91.798" height="54.292" viewBox="0 0 91.798 54.292">
  <g id="Group_105" data-name="Group 105" transform="translate(0)" opacity="0.25">
    <path id="Path_135" data-name="Path 135" d="M1143.576,613.8a2.141,2.141,0,1,1-2.141-2.141A2.14,2.14,0,0,1,1143.576,613.8Z" transform="translate(-1139.294 -611.656)" fill="#2d2d2d"/>
    <path id="Path_136" data-name="Path 136" d="M1154.4,613.8a2.141,2.141,0,1,1-2.141-2.141A2.14,2.14,0,0,1,1154.4,613.8Z" transform="translate(-1137.613 -611.656)" fill="#2d2d2d"/>
    <path id="Path_137" data-name="Path 137" d="M1165.218,613.8a2.141,2.141,0,1,1-2.141-2.141A2.14,2.14,0,0,1,1165.218,613.8Z" transform="translate(-1135.932 -611.656)" fill="#2d2d2d"/>
    <path id="Path_138" data-name="Path 138" d="M1176.04,613.8a2.141,2.141,0,1,1-2.141-2.141A2.14,2.14,0,0,1,1176.04,613.8Z" transform="translate(-1134.252 -611.656)" fill="#2d2d2d"/>
    <path id="Path_139" data-name="Path 139" d="M1186.862,613.8a2.141,2.141,0,1,1-2.141-2.141A2.14,2.14,0,0,1,1186.862,613.8Z" transform="translate(-1132.571 -611.656)" fill="#2d2d2d"/>
    <path id="Path_140" data-name="Path 140" d="M1197.685,613.8a2.141,2.141,0,1,1-2.141-2.141A2.141,2.141,0,0,1,1197.685,613.8Z" transform="translate(-1130.891 -611.656)" fill="#2d2d2d"/>
    <path id="Path_141" data-name="Path 141" d="M1208.507,613.8a2.141,2.141,0,1,1-2.142-2.141A2.141,2.141,0,0,1,1208.507,613.8Z" transform="translate(-1129.21 -611.656)" fill="#2d2d2d"/>
    <path id="Path_142" data-name="Path 142" d="M1219.328,613.8a2.141,2.141,0,1,1-2.141-2.141A2.14,2.14,0,0,1,1219.328,613.8Z" transform="translate(-1127.529 -611.656)" fill="#2d2d2d"/>
    <path id="Path_143" data-name="Path 143" d="M1143.576,624.619a2.141,2.141,0,1,1-2.141-2.141A2.141,2.141,0,0,1,1143.576,624.619Z" transform="translate(-1139.294 -609.975)" fill="#2d2d2d"/>
    <path id="Path_144" data-name="Path 144" d="M1154.4,624.619a2.141,2.141,0,1,1-2.141-2.141A2.141,2.141,0,0,1,1154.4,624.619Z" transform="translate(-1137.613 -609.975)" fill="#2d2d2d"/>
    <path id="Path_145" data-name="Path 145" d="M1165.218,624.619a2.141,2.141,0,1,1-2.141-2.141A2.14,2.14,0,0,1,1165.218,624.619Z" transform="translate(-1135.932 -609.975)" fill="#2d2d2d"/>
    <path id="Path_146" data-name="Path 146" d="M1176.04,624.619a2.141,2.141,0,1,1-2.141-2.141A2.14,2.14,0,0,1,1176.04,624.619Z" transform="translate(-1134.252 -609.975)" fill="#2d2d2d"/>
    <path id="Path_147" data-name="Path 147" d="M1186.862,624.619a2.141,2.141,0,1,1-2.141-2.141A2.141,2.141,0,0,1,1186.862,624.619Z" transform="translate(-1132.571 -609.975)" fill="#2d2d2d"/>
    <path id="Path_148" data-name="Path 148" d="M1197.685,624.619a2.141,2.141,0,1,1-2.141-2.141A2.141,2.141,0,0,1,1197.685,624.619Z" transform="translate(-1130.891 -609.975)" fill="#2d2d2d"/>
    <path id="Path_149" data-name="Path 149" d="M1208.507,624.619a2.141,2.141,0,1,1-2.142-2.141A2.141,2.141,0,0,1,1208.507,624.619Z" transform="translate(-1129.21 -609.975)" fill="#2d2d2d"/>
    <path id="Path_150" data-name="Path 150" d="M1219.328,624.619a2.141,2.141,0,1,1-2.141-2.141A2.14,2.14,0,0,1,1219.328,624.619Z" transform="translate(-1127.529 -609.975)" fill="#2d2d2d"/>
    <path id="Path_151" data-name="Path 151" d="M1143.576,635.441a2.141,2.141,0,1,1-2.141-2.141A2.141,2.141,0,0,1,1143.576,635.441Z" transform="translate(-1139.294 -608.295)" fill="#2d2d2d"/>
    <path id="Path_152" data-name="Path 152" d="M1154.4,635.441a2.141,2.141,0,1,1-2.141-2.141A2.141,2.141,0,0,1,1154.4,635.441Z" transform="translate(-1137.613 -608.295)" fill="#2d2d2d"/>
    <path id="Path_153" data-name="Path 153" d="M1165.218,635.441a2.141,2.141,0,1,1-2.141-2.141A2.14,2.14,0,0,1,1165.218,635.441Z" transform="translate(-1135.932 -608.295)" fill="#2d2d2d"/>
    <path id="Path_154" data-name="Path 154" d="M1176.04,635.441a2.141,2.141,0,1,1-2.141-2.141A2.14,2.14,0,0,1,1176.04,635.441Z" transform="translate(-1134.252 -608.295)" fill="#2d2d2d"/>
    <path id="Path_155" data-name="Path 155" d="M1186.862,635.441a2.141,2.141,0,1,1-2.141-2.141A2.141,2.141,0,0,1,1186.862,635.441Z" transform="translate(-1132.571 -608.295)" fill="#2d2d2d"/>
    <path id="Path_156" data-name="Path 156" d="M1197.685,635.441a2.141,2.141,0,1,1-2.141-2.141A2.141,2.141,0,0,1,1197.685,635.441Z" transform="translate(-1130.891 -608.295)" fill="#2d2d2d"/>
    <path id="Path_157" data-name="Path 157" d="M1208.507,635.441a2.141,2.141,0,1,1-2.142-2.141A2.142,2.142,0,0,1,1208.507,635.441Z" transform="translate(-1129.21 -608.295)" fill="#2d2d2d"/>
    <path id="Path_158" data-name="Path 158" d="M1219.328,635.441a2.141,2.141,0,1,1-2.141-2.141A2.14,2.14,0,0,1,1219.328,635.441Z" transform="translate(-1127.529 -608.295)" fill="#2d2d2d"/>
    <path id="Path_159" data-name="Path 159" d="M1143.576,646.263a2.141,2.141,0,1,1-2.141-2.141A2.141,2.141,0,0,1,1143.576,646.263Z" transform="translate(-1139.294 -606.614)" fill="#2d2d2d"/>
    <path id="Path_160" data-name="Path 160" d="M1154.4,646.263a2.141,2.141,0,1,1-2.141-2.141A2.141,2.141,0,0,1,1154.4,646.263Z" transform="translate(-1137.613 -606.614)" fill="#2d2d2d"/>
    <path id="Path_161" data-name="Path 161" d="M1165.218,646.263a2.141,2.141,0,1,1-2.141-2.141A2.14,2.14,0,0,1,1165.218,646.263Z" transform="translate(-1135.932 -606.614)" fill="#2d2d2d"/>
    <path id="Path_162" data-name="Path 162" d="M1176.04,646.263a2.141,2.141,0,1,1-2.141-2.141A2.14,2.14,0,0,1,1176.04,646.263Z" transform="translate(-1134.252 -606.614)" fill="#2d2d2d"/>
    <path id="Path_163" data-name="Path 163" d="M1186.862,646.263a2.141,2.141,0,1,1-2.141-2.141A2.141,2.141,0,0,1,1186.862,646.263Z" transform="translate(-1132.571 -606.614)" fill="#2d2d2d"/>
    <path id="Path_164" data-name="Path 164" d="M1197.685,646.263a2.141,2.141,0,1,1-2.141-2.141A2.141,2.141,0,0,1,1197.685,646.263Z" transform="translate(-1130.891 -606.614)" fill="#2d2d2d"/>
    <path id="Path_165" data-name="Path 165" d="M1208.507,646.263a2.141,2.141,0,1,1-2.142-2.141A2.142,2.142,0,0,1,1208.507,646.263Z" transform="translate(-1129.21 -606.614)" fill="#2d2d2d"/>
    <path id="Path_166" data-name="Path 166" d="M1219.328,646.263a2.141,2.141,0,1,1-2.141-2.141A2.14,2.14,0,0,1,1219.328,646.263Z" transform="translate(-1127.529 -606.614)" fill="#2d2d2d"/>
    <path id="Path_167" data-name="Path 167" d="M1143.576,657.085a2.141,2.141,0,1,1-2.141-2.142A2.141,2.141,0,0,1,1143.576,657.085Z" transform="translate(-1139.294 -604.933)" fill="#2d2d2d"/>
    <path id="Path_168" data-name="Path 168" d="M1154.4,657.085a2.141,2.141,0,1,1-2.141-2.142A2.141,2.141,0,0,1,1154.4,657.085Z" transform="translate(-1137.613 -604.933)" fill="#2d2d2d"/>
    <path id="Path_169" data-name="Path 169" d="M1165.218,657.085a2.141,2.141,0,1,1-2.141-2.142A2.14,2.14,0,0,1,1165.218,657.085Z" transform="translate(-1135.932 -604.933)" fill="#2d2d2d"/>
    <path id="Path_170" data-name="Path 170" d="M1176.04,657.085a2.141,2.141,0,1,1-2.141-2.142A2.14,2.14,0,0,1,1176.04,657.085Z" transform="translate(-1134.252 -604.933)" fill="#2d2d2d"/>
    <path id="Path_171" data-name="Path 171" d="M1186.862,657.085a2.141,2.141,0,1,1-2.141-2.142A2.141,2.141,0,0,1,1186.862,657.085Z" transform="translate(-1132.571 -604.933)" fill="#2d2d2d"/>
    <path id="Path_172" data-name="Path 172" d="M1197.685,657.085a2.141,2.141,0,1,1-2.141-2.142A2.141,2.141,0,0,1,1197.685,657.085Z" transform="translate(-1130.891 -604.933)" fill="#2d2d2d"/>
    <path id="Path_173" data-name="Path 173" d="M1208.507,657.085a2.141,2.141,0,1,1-2.142-2.142A2.142,2.142,0,0,1,1208.507,657.085Z" transform="translate(-1129.21 -604.933)" fill="#2d2d2d"/>
    <path id="Path_174" data-name="Path 174" d="M1219.328,657.085a2.141,2.141,0,1,1-2.141-2.142A2.14,2.14,0,0,1,1219.328,657.085Z" transform="translate(-1127.529 -604.933)" fill="#2d2d2d"/>
  </g>
</svg>
